<svg xmlns="http://www.w3.org/2000/svg" version="1.1" xmlns:xlink="http://www.w3.org/1999/xlink" xmlns:svgjs="http://svgjs.dev/svgjs" width="512" height="512"><svg xmlns="http://www.w3.org/2000/svg" viewBox="0 0 512 512">
  <!-- Background Circle -->
  <circle cx="256" cy="256" r="248" fill="#0ea5e9"></circle>
  <circle cx="256" cy="256" r="240" fill="#ffffff"></circle>
  
  <!-- Sun core -->
  <circle cx="256" cy="256" r="100" fill="#0ea5e9"></circle>
  
  <!-- Sun rays -->
  <g stroke="#0ea5e9" stroke-width="40" stroke-linecap="round">
    <!-- Vertical and horizontal rays -->
    <line x1="256" y1="80" x2="256" y2="160"></line>
    <line x1="256" y1="352" x2="256" y2="432"></line>
    <line x1="80" y1="256" x2="160" y2="256"></line>
    <line x1="352" y1="256" x2="432" y2="256"></line>
    
    <!-- Diagonal rays -->
    <line x1="134" y1="134" x2="190" y2="190"></line>
    <line x1="322" y1="322" x2="378" y2="378"></line>
    <line x1="134" y1="378" x2="190" y2="322"></line>
    <line x1="322" y1="190" x2="378" y2="134"></line>
  </g>

  <!-- Tool symbolization - stylized 'S' for Solaris -->
  <path d="M256 196 Q286 196 286 226 L286 246 Q286 276 256 276 L246 276 Q216 276 216 306 L216 326 Q216 356 246 356" fill="none" stroke="#ffffff" stroke-width="24" stroke-linecap="round"></path>
</svg><style>@media (prefers-color-scheme: light) { :root { filter: none; } }
@media (prefers-color-scheme: dark) { :root { filter: none; } }
</style></svg>